<svg width="25" height="24" viewBox="0 0 25 24" fill="none" xmlns="http://www.w3.org/2000/svg">
<path d="M8.23594 2.12217C9.50317 2.61908 10.7281 3.27538 11.8827 4.077C12.0141 4.16606 12.1643 4.21294 12.3145 4.21294C12.4647 4.21294 12.6149 4.16606 12.7463 4.077C13.9009 3.27538 15.1259 2.61439 16.3931 2.11748C16.6794 2.00497 16.8718 1.72371 16.8671 1.41431C16.8671 1.10491 16.6747 0.82833 16.3837 0.72051C13.8493 -0.240495 10.7798 -0.240495 8.25002 0.72051C7.96373 0.82833 7.7666 1.1096 7.7666 1.41431C7.7666 1.71902 7.94495 2.00966 8.23594 2.12217Z" fill="white"/>
<path d="M19.1204 2.1265C18.881 1.96243 18.576 1.94837 18.3178 2.09369C16.9145 2.9 15.5581 3.8235 14.2768 4.84076C14.1078 4.9767 14.0046 5.17828 13.9952 5.39392C13.9858 5.60956 14.0703 5.82051 14.2252 5.97052C16.8816 8.49726 20.5613 16.2462 21.4061 19.809C19.5757 16.715 15.4924 9.43483 12.8218 6.94559C12.5355 6.67838 12.085 6.67838 11.7987 6.94559C9.1234 9.43483 5.05419 16.7197 3.22375 19.8184C4.06857 16.2556 7.73883 8.49726 10.3953 5.97052C10.5549 5.82051 10.6394 5.60956 10.63 5.39392C10.6206 5.17828 10.5173 4.9767 10.3484 4.84076C9.06707 3.8235 7.70598 2.9 6.30733 2.09369C6.05858 1.94837 5.74412 1.96243 5.50476 2.1265C2.24282 4.37197 0.295044 8.06129 0.295044 11.9991C0.295044 14.8774 1.33229 17.6526 3.22375 19.8184C5.48598 22.4717 8.79486 23.9999 12.3102 23.9999C15.8256 23.9999 19.1392 22.4764 21.4061 19.8137C23.2882 17.6573 24.3254 14.8821 24.3254 11.9991C24.3254 8.06129 22.3777 4.37197 19.1204 2.1265Z" fill="white"/>
</svg>
